<?xml version="1.0" standalone="no"?>
<!DOCTYPE svg PUBLIC "-//W3C//DTD SVG 20010904//EN"
 "http://www.w3.org/TR/2001/REC-SVG-20010904/DTD/svg10.dtd">
<svg version="1.0" xmlns="http://www.w3.org/2000/svg"
 width="231.000000pt" height="218.000000pt" viewBox="0 0 231.000000 218.000000"
 preserveAspectRatio="xMidYMid meet">

<g transform="translate(0.000000,218.000000) scale(0.100000,-0.100000)"
fill="#000000" stroke="none">
<path d="M1170 1998 c0 -99 -1 -103 -29 -133 -23 -22 -34 -48 -45 -104 -9 -41
-21 -78 -28 -83 -25 -15 -70 -8 -100 17 -37 31 -73 41 -102 27 -32 -14 -60
-76 -52 -116 4 -19 3 -26 -3 -17 -10 15 -51 6 -51 -11 0 -6 6 -6 15 2 9 7 17
11 20 9 2 -3 -9 -13 -26 -24 -16 -11 -29 -27 -29 -35 0 -13 -1 -13 -10 0 -7
11 -3 18 13 27 12 7 18 12 12 12 -19 1 -40 -18 -40 -35 0 -9 -8 -18 -19 -20
-10 -1 -28 -11 -40 -21 -12 -10 -9 -5 7 10 15 15 33 25 39 21 6 -4 8 -3 4 4
-6 9 -106 52 -123 52 -4 0 3 -10 14 -22 28 -31 27 -60 -1 -52 -12 4 -26 11
-33 16 -7 5 -18 6 -24 2 -8 -4 -9 -3 -5 4 10 17 -42 35 -84 28 l-35 -5 24 19
c24 20 70 25 106 11 12 -5 24 -3 33 5 7 7 19 11 27 8 31 -12 13 6 -25 26 -46
23 -107 26 -155 6 -33 -14 -60 -51 -69 -97 -2 -13 -12 -42 -21 -63 -19 -45
-14 -77 20 -122 17 -22 20 -35 14 -47 -6 -9 -12 -29 -14 -44 -3 -16 -8 -40
-11 -55 -4 -19 1 -38 17 -64 12 -21 17 -34 11 -30 -13 8 -16 -11 -13 -76 2
-44 -1 -45 -71 -18 -65 24 -68 25 -68 3 0 -10 23 -40 50 -68 l50 -49 -30 -31
c-17 -17 -30 -39 -30 -50 0 -10 -3 -15 -6 -12 -10 9 -46 -12 -39 -24 4 -5 15
-9 26 -9 10 0 19 -4 19 -10 0 -5 -7 -10 -15 -10 -8 0 -15 -4 -15 -10 0 -5 7
-10 15 -10 8 0 15 -6 15 -12 0 -7 18 -32 39 -55 22 -23 42 -56 46 -72 4 -17
11 -31 15 -31 5 0 6 -7 3 -17 -4 -10 -2 -14 4 -10 13 8 5 -31 -10 -51 -15 -19
-39 44 -32 82 5 23 4 27 -4 16 -9 -13 -11 -12 -11 6 0 22 -36 62 -46 51 -8 -8
23 -136 41 -170 12 -24 9 -29 -113 -151 -69 -69 -123 -128 -120 -131 3 -3 23
3 44 14 21 12 45 21 52 21 7 0 36 12 65 27 29 15 78 30 110 34 52 6 61 5 83
-16 31 -29 32 -80 2 -112 l-21 -23 43 0 c26 0 51 6 62 17 17 15 19 15 36 0 10
-10 24 -17 30 -17 17 0 15 35 -3 50 -9 7 -13 15 -11 17 2 3 14 -5 25 -16 16
-16 34 -21 75 -21 35 0 58 -5 66 -15 9 -10 32 -15 77 -15 86 0 82 15 -22 98
-44 35 -82 73 -83 85 -2 11 -19 42 -37 69 -39 56 -84 149 -111 228 -15 44 -19
84 -18 200 0 125 3 155 24 218 l24 72 48 0 c44 0 61 -11 39 -24 -8 -5 -48
-115 -57 -158 -3 -13 -7 -54 -11 -93 -3 -38 -12 -77 -19 -85 -23 -27 16 -170
45 -170 23 0 44 16 37 28 -5 9 34 42 51 42 4 0 -4 -8 -18 -18 -24 -16 -29 -42
-8 -42 5 0 8 3 6 8 -1 4 0 7 3 7 14 0 37 32 33 45 -3 9 0 8 7 -3 14 -22 -5
-51 -27 -43 -8 3 -12 2 -8 -3 3 -5 2 -16 -1 -25 -5 -13 -9 -14 -20 -5 -11 9
-14 8 -14 -1 0 -8 -3 -10 -7 -7 -3 4 -12 2 -20 -4 -10 -9 -13 -8 -13 1 0 8 -3
10 -6 7 -16 -16 116 -189 175 -230 25 -17 46 -29 46 -27 0 2 10 -4 22 -15 12
-10 47 -29 78 -41 66 -27 104 -38 90 -27 -5 4 -10 14 -10 21 0 16 -73 44 -81
31 -3 -5 -11 -9 -17 -8 -8 0 -8 2 1 6 10 4 9 10 -5 25 -10 12 -13 19 -8 16
108 -48 117 -51 143 -49 16 2 25 -4 29 -18 3 -11 14 -23 24 -26 23 -7 59 2 59
16 0 12 37 12 45 -1 3 -5 10 -29 15 -52 l9 -43 -3 43 c-2 23 0 40 5 36 5 -3
35 -6 66 -8 52 -3 59 -1 82 27 35 41 49 82 49 142 0 50 0 50 -11 18 -18 -47
-23 -47 -22 0 0 23 -3 56 -7 72 l-6 30 49 0 c36 0 48 -3 44 -13 -3 -7 0 -10 6
-7 17 11 8 -94 -13 -151 -17 -47 -67 -104 -92 -104 -5 0 -7 -3 -3 -6 8 -9 94
45 128 81 28 28 29 28 43 10 13 -18 17 -18 57 -5 96 31 159 149 89 167 -18 5
-18 7 6 44 28 44 66 141 63 161 -1 7 -1 24 0 37 1 20 5 22 27 17 48 -12 64 32
28 75 -8 9 -17 36 -20 60 -9 71 -44 179 -59 179 -8 0 -11 7 -8 21 3 11 11 18
19 15 7 -3 16 -1 19 4 4 6 15 10 26 10 11 0 19 7 19 18 0 9 10 23 23 31 12 7
19 10 15 7 -3 -4 -2 -23 4 -42 6 -24 6 -40 -1 -48 -12 -14 14 -107 42 -146 9
-13 17 -32 17 -41 0 -9 11 -24 24 -32 31 -21 41 -57 15 -57 -36 0 -15 -83 32
-125 27 -26 54 -9 54 34 0 26 4 31 22 31 23 0 23 2 23 116 0 111 -1 116 -28
150 -15 18 -33 34 -39 34 -16 0 -18 86 -3 95 6 3 10 15 10 27 0 11 11 33 25
50 l25 29 12 -45 c13 -49 28 -44 28 10 0 56 -19 94 -47 94 -14 0 -37 8 -51 19
-34 24 -69 34 -76 23 -3 -5 2 -21 10 -36 19 -38 18 -43 -11 -78 -14 -16 -25
-25 -25 -20 0 14 -71 -3 -81 -20 -6 -9 -9 -9 -9 -1 0 6 8 18 18 25 16 13 24
29 25 55 0 9 4 10 14 2 22 -19 15 -4 -14 27 -25 27 -25 29 -7 32 53 8 59 12
61 39 1 15 5 43 8 61 7 30 3 37 -46 87 -58 59 -73 64 -125 39 -43 -20 -55 -12
-26 19 46 49 54 112 19 145 -32 30 -84 29 -133 -4 -34 -23 -42 -25 -75 -15
-20 6 -50 11 -66 11 -27 0 -30 3 -26 24 4 17 -3 33 -20 50 -15 14 -22 26 -17
26 6 0 10 5 10 10 0 6 -16 10 -35 10 -27 0 -40 -7 -62 -35 l-28 -34 -32 31
c-32 31 -33 35 -33 108 0 52 -5 82 -15 96 -8 10 -15 29 -15 42 0 22 -26 82
-35 82 -3 0 -5 -46 -5 -102z m-13 -225 c-3 -10 -5 -4 -5 12 0 17 2 24 5 18 2
-7 2 -21 0 -30z m226 -37 c4 -10 1 -13 -8 -9 -8 3 -12 9 -9 14 7 12 11 11 17
-5z m42 4 c3 -5 -1 -10 -9 -10 -9 0 -16 5 -16 10 0 6 4 10 9 10 6 0 13 -4 16
-10z m-235 -28 c0 -4 -16 -22 -35 -40 -20 -18 -34 -36 -30 -41 3 -5 -4 -7 -15
-4 -27 7 -25 14 15 56 33 34 65 48 65 29z m29 -43 c-35 -32 -62 -39 -52 -14 8
22 77 68 82 54 1 -5 -12 -24 -30 -40z m98 45 c-3 -3 -12 -4 -19 -1 -8 3 -5 6
6 6 11 1 17 -2 13 -5z m33 2 c0 -3 -4 -8 -10 -11 -5 -3 -10 -1 -10 4 0 6 5 11
10 11 6 0 10 -2 10 -4z m378 -77 c2 -15 -6 -37 -20 -54 l-23 -29 -5 29 c-3 18
-15 34 -28 41 l-24 12 24 16 c34 24 72 17 76 -15z m-703 13 c-2 -3 -17 -6 -32
-8 -16 -1 -29 -2 -30 -3 -2 -1 -6 -1 -10 -2 -5 0 -14 -5 -21 -11 -7 -6 -15 -8
-19 -5 -9 10 58 36 90 35 15 -1 25 -3 22 -6z m580 -22 c3 -6 -1 -7 -9 -4 -18
7 -21 14 -7 14 6 0 13 -4 16 -10z m-305 -24 c0 -2 -8 -10 -17 -17 -16 -13 -17
-12 -4 4 13 16 21 21 21 13z m-445 -60 c-28 -23 -45 -25 -45 -7 0 10 39 29 60
30 9 1 3 -9 -15 -23z m379 -34 c36 -58 48 -64 140 -67 70 -3 89 -1 108 14 25
19 48 17 48 -4 0 -17 -48 -48 -65 -41 -7 2 -19 -2 -25 -10 -10 -11 -10 -14 0
-14 8 0 11 -2 9 -4 -2 -3 -30 4 -61 15 -78 26 -288 36 -288 14 0 -8 -9 -15
-19 -15 -10 0 -49 -9 -87 -21 -50 -15 -64 -23 -53 -31 10 -7 8 -8 -8 -3 -22 6
-69 -16 -57 -27 3 -3 0 -9 -7 -14 -8 -5 -10 -3 -4 6 4 7 4 11 -1 8 -57 -26
-64 -32 -64 -61 0 -25 2 -28 15 -17 11 9 19 10 26 3 8 -8 6 -11 -6 -10 -12 1
-21 -8 -26 -28 -10 -35 -2 -68 15 -62 8 3 10 -7 8 -34 -2 -22 -9 -39 -16 -39
-6 0 -5 -4 3 -9 19 -12 -56 -5 -91 8 -14 5 -29 7 -34 3 -4 -4 -4 -2 0 5 3 6 2
14 -3 17 -10 7 -3 44 12 64 7 9 13 9 23 2 9 -9 19 -2 38 27 29 42 33 85 12
134 l-14 33 51 38 c27 21 58 40 68 43 10 3 21 15 24 25 4 11 18 23 33 26 15 4
35 14 45 22 21 19 114 40 179 41 45 1 49 -1 72 -37z m-338 19 c-3 -5 -19 -14
-35 -19 -24 -9 -29 -8 -25 3 5 13 23 21 52 24 7 0 11 -3 8 -8z m443 -26 l20
-35 -34 0 c-37 0 -75 28 -75 55 0 10 10 15 34 15 28 0 38 -6 55 -35z m515 -29
c0 -26 3 -41 8 -34 6 10 8 10 8 1 0 -7 -9 -17 -21 -23 -12 -7 -18 -18 -15 -26
3 -8 2 -13 -3 -10 -5 3 -11 -1 -15 -9 -3 -8 -13 -15 -22 -15 -15 0 -16 2 -2
18 9 9 19 27 23 40 6 21 5 22 -13 11 -12 -7 -18 -19 -14 -28 4 -11 1 -13 -14
-7 -10 4 -26 9 -34 10 -23 4 -19 38 8 68 13 14 23 30 22 35 -1 9 36 20 65 18
17 -2 20 -9 19 -49z m-1326 28 c12 -8 22 -23 22 -33 0 -24 18 -36 55 -40 23
-1 39 6 62 28 17 16 28 33 25 37 -4 4 -2 4 5 0 6 -3 14 -2 18 4 12 19 41 10
57 -18 15 -25 15 -31 3 -49 -8 -11 -11 -24 -7 -28 4 -5 2 -5 -5 -1 -6 3 -13
-1 -16 -11 -3 -14 -6 -12 -16 11 -11 28 -13 29 -69 22 -31 -3 -66 -8 -77 -10
-11 -2 -31 1 -45 5 -19 6 -21 6 -10 -2 13 -9 11 -16 -15 -43 -48 -52 -67 -37
-92 71 -8 34 -7 45 6 57 20 20 70 20 99 0z m886 7 c9 -13 -19 -32 -38 -25 -25
10 -19 34 8 34 14 0 27 -4 30 -9z m56 -21 c13 -9 13 -11 0 -20 -18 -12 -60
-13 -60 -2 0 12 22 32 35 32 5 0 17 -5 25 -10z m210 -63 c10 -4 8 -6 -6 -6
-12 -1 -25 6 -28 15 -5 13 -3 14 6 7 7 -6 20 -13 28 -16z m-1266 -59 c8 -5 7
-11 0 -18 -14 -14 -44 23 -44 54 0 19 2 18 17 -4 9 -14 22 -28 27 -32z m1175
40 c-2 -2 -22 -20 -45 -41 -37 -35 -42 -37 -72 -26 -35 12 -34 29 1 29 12 1
42 12 67 25 25 12 47 21 49 19 2 -2 2 -5 0 -6z m160 -46 c22 -20 22 -22 4 -13
-24 12 -53 49 -53 66 0 5 5 1 11 -10 6 -11 23 -31 38 -43z m-1203 12 c-5 -13
-1 -15 24 -12 23 4 27 2 19 -9 -6 -7 -16 -10 -22 -6 -5 3 -7 1 -3 -5 12 -20
-15 -24 -37 -6 l-22 18 22 -23 21 -24 28 22 c40 31 46 25 10 -12 -30 -31 -87
-64 -85 -49 1 4 1 16 0 27 -2 18 -3 18 -17 -5 l-15 -25 7 25 c7 26 16 41 48
78 23 26 31 28 22 6z m628 -44 c23 0 59 -5 81 -10 23 -5 44 -5 50 0 7 6 11 3
11 -9 0 -18 -26 -23 -37 -8 -3 5 -39 9 -79 11 -62 2 -75 6 -81 22 -12 29 -9
42 3 17 9 -18 20 -23 52 -23z m541 31 c3 -5 0 -13 -6 -17 -7 -4 -9 -3 -5 4 3
5 0 13 -6 15 -9 4 -10 6 -1 6 6 1 14 -3 18 -8z m-356 -27 c-6 -7 -15 -11 -21
-8 -5 3 -4 12 3 20 6 7 15 11 21 8 5 -3 4 -12 -3 -20z m251 17 c0 -5 -9 -7
-20 -4 -11 3 -20 7 -20 9 0 2 9 4 20 4 11 0 20 -4 20 -9z m-1143 -33 c2 -21
-17 -24 -35 -6 -18 18 -14 28 11 26 14 -1 24 -9 24 -20z m918 -8 c-16 -16 -33
-30 -39 -30 -5 0 3 14 19 30 16 17 33 30 39 30 5 0 -3 -13 -19 -30z m286 3
l24 -28 -30 25 c-16 14 -32 26 -34 28 -2 1 0 2 6 2 5 0 20 -12 34 -27z m166 5
c-3 -8 -6 -5 -6 6 -1 11 2 17 5 13 3 -3 4 -12 1 -19z m-887 -3 c0 -2 -6 -5
-13 -8 -8 -3 -14 1 -14 8 0 7 6 11 14 8 7 -3 13 -6 13 -8z m-327 -7 c-6 -7 -9
-32 -7 -56 1 -30 -3 -48 -18 -65 l-19 -22 17 28 c13 22 14 32 5 50 -11 22 -11
22 -6 0 7 -27 -31 -58 -52 -41 -28 23 -9 66 27 60 8 -1 22 3 30 8 13 8 13 11
1 19 -11 7 -10 11 5 20 25 14 28 14 17 -1z m960 -5 c-4 -10 -10 -21 -15 -24
-5 -3 -10 -16 -11 -27 -2 -26 1 -25 -32 -10 -28 13 -30 19 -13 36 7 7 8 12 4
12 -5 0 -3 7 4 15 7 8 25 15 41 15 23 0 27 -3 22 -17z m-1168 -23 c18 -20 17
-20 -8 -20 -20 0 -24 4 -20 20 3 11 6 20 8 20 1 0 10 -9 20 -20z m1071 2 c6
11 9 -4 8 -48 -1 -54 1 -64 15 -62 9 2 17 -4 17 -12 1 -8 2 -21 3 -27 0 -7 8
-13 17 -13 10 0 14 -5 10 -16 -3 -8 -2 -12 3 -9 5 3 13 0 17 -7 4 -7 4 -10 -1
-6 -4 4 -17 3 -28 -3 -15 -9 -18 -8 -12 3 3 7 0 4 -9 -6 -8 -10 -13 -23 -10
-27 3 -5 -2 -9 -11 -9 -9 0 -13 5 -10 10 3 6 -3 10 -14 10 -23 0 -37 18 -32
44 2 12 -1 16 -9 11 -18 -11 8 36 30 55 23 20 17 82 -8 73 -11 -5 -14 -2 -9
10 4 12 2 14 -11 10 -14 -5 -14 -3 3 16 18 20 20 21 25 5 6 -17 8 -17 16 -2z
m-1026 -17 c0 -8 -4 -15 -10 -15 -5 0 -7 7 -4 15 4 8 8 15 10 15 2 0 4 -7 4
-15z m1130 -10 c-7 -18 -6 -25 3 -26 9 0 9 -2 -1 -6 -6 -2 -9 -10 -6 -15 4 -7
2 -8 -4 -4 -7 4 -12 11 -12 16 0 14 19 60 25 60 2 0 0 -11 -5 -25z m77 5 c4
-12 3 -13 -5 -1 -5 7 -15 10 -21 7 -6 -4 -11 -2 -11 4 0 17 33 8 37 -10z
m-1247 -26 c0 -9 5 -12 12 -8 7 4 8 3 4 -5 -4 -6 -11 -9 -16 -6 -4 3 -11 -3
-15 -13 -7 -16 -8 -15 -15 3 -7 20 4 45 21 45 5 0 9 -7 9 -16z m1210 6 c0 -5
-4 -10 -10 -10 -5 0 -10 5 -10 10 0 6 5 10 10 10 6 0 10 -4 10 -10z m-356 -37
c71 -19 86 -28 86 -54 0 -20 50 -79 67 -79 6 0 16 -7 24 -16 7 -8 29 -24 50
-35 30 -15 41 -29 59 -76 12 -32 26 -63 31 -69 6 -8 5 -13 -4 -17 -16 -6 -20
-57 -5 -57 6 0 5 -7 -2 -15 -10 -12 -9 -16 4 -21 10 -4 15 -13 12 -20 -3 -9 0
-11 11 -7 12 5 14 3 7 -8 -5 -8 -9 -18 -9 -24 -1 -5 -6 -9 -13 -8 -6 2 -17 -7
-23 -20 -11 -20 -11 -21 4 -8 10 7 17 11 17 7 0 -3 9 2 20 11 12 11 16 20 9
24 -7 4 -4 9 6 12 9 4 13 3 10 -3 -9 -14 18 -12 35 3 12 10 12 9 2 -4 -6 -9
-9 -18 -6 -22 3 -3 -4 -3 -17 0 -17 5 -20 3 -14 -7 5 -8 4 -11 -2 -7 -6 4 -18
-2 -27 -12 -11 -13 -14 -21 -7 -26 6 -3 11 -14 11 -23 -1 -15 -3 -14 -18 4
-16 19 -20 19 -52 6 -30 -12 -133 -12 -145 0 -2 2 -1 15 2 30 5 28 33 41 54
26 11 -8 10 -8 -4 -4 -10 3 -16 2 -13 -3 3 -5 18 -12 33 -16 15 -3 30 -10 33
-14 3 -4 16 -4 30 0 l25 7 -28 1 c-25 1 -27 3 -20 29 5 15 8 65 7 112 -1 97
-16 137 -85 216 -72 84 -209 124 -254 74 -21 -24 -67 -26 -85 -5 -15 17 -49
19 -70 4 -12 -9 -11 -10 5 -4 11 3 16 3 12 -2 -5 -4 -21 -8 -37 -9 -38 -2
-106 -70 -139 -138 -20 -43 -24 -66 -25 -146 0 -56 5 -104 12 -117 10 -17 9
-22 -5 -27 -35 -14 -73 68 -73 154 0 56 30 168 56 207 29 45 143 143 192 165
23 10 42 23 42 28 0 4 8 6 18 4 9 -2 31 0 47 5 45 14 83 13 149 -6z m-897 -23
c7 -11 9 -21 3 -25 -9 -6 -13 -1 -23 28 -9 23 5 22 20 -3z m62 -22 c3 5 16 12
28 16 16 5 25 2 32 -12 7 -14 7 -19 -4 -19 -8 0 -12 4 -9 8 9 15 -13 18 -32 5
-20 -15 -54 -5 -54 15 0 6 7 3 16 -6 10 -9 20 -12 23 -7z m974 -36 l5 -27 -19
24 c-22 27 -25 43 -5 35 8 -3 16 -17 19 -32z m483 -38 c-9 -28 -12 -31 -14
-14 -3 17 12 50 23 50 1 0 -3 -16 -9 -36z m104 -24 c0 -22 -4 -40 -10 -40 -11
0 -14 63 -3 73 11 12 13 8 13 -33z m-724 -53 c49 -25 112 -101 120 -144 4 -21
9 -42 12 -48 7 -11 4 -59 -4 -88 -6 -17 -7 -17 -25 -1 -14 13 -16 21 -8 35 7
13 6 19 -1 19 -6 0 -17 15 -25 33 -8 17 -14 25 -15 17 0 -9 7 -25 15 -37 11
-16 12 -22 3 -25 -8 -3 -3 -16 15 -38 21 -24 27 -42 25 -66 -3 -27 2 -36 31
-56 19 -13 33 -26 30 -29 -2 -3 4 -14 14 -23 23 -23 15 -31 -14 -15 -25 13
-59 51 -71 78 -5 12 -7 11 -7 -5 -1 -24 54 -78 90 -89 17 -6 27 -2 41 15 17
21 18 21 18 3 0 -22 -37 -43 -75 -43 -40 0 -72 20 -92 59 -10 20 -21 37 -25
39 -4 2 5 15 21 28 23 19 28 31 25 51 -6 29 -24 57 -32 48 -3 -2 0 -11 7 -18
12 -15 4 -77 -10 -77 -5 0 -6 8 -3 18 3 9 -4 0 -16 -20 -11 -21 -24 -38 -28
-38 -12 0 -42 -56 -42 -78 0 -11 9 -30 19 -43 18 -21 22 -23 41 -11 18 11 21
11 18 1 -2 -7 -16 -16 -31 -20 -20 -5 -32 -2 -51 16 -34 31 -41 66 -22 103 9
17 16 34 16 37 0 13 -102 -79 -110 -99 -7 -16 -9 -17 -9 -4 -1 9 -4 18 -8 21
-5 2 -2 2 5 1 6 -2 12 1 12 6 0 6 20 30 45 55 46 44 75 97 75 133 0 15 5 18
25 14 28 -5 31 -12 13 -30 -6 -6 -9 -15 -5 -18 10 -10 30 43 23 61 -3 9 -15
19 -26 22 -12 3 -19 12 -18 22 4 23 -26 20 -30 -3 -2 -10 0 -16 6 -12 5 3 15
-1 22 -9 7 -8 16 -13 20 -10 5 3 12 0 16 -6 7 -11 -7 -10 -41 2 -5 2 -11 -1
-12 -6 -1 -5 -24 -12 -49 -15 -66 -7 -68 -26 -3 -24 41 2 49 0 45 -13 -3 -8
-6 -19 -6 -24 0 -15 -80 -49 -115 -49 -35 0 -70 21 -86 52 -10 18 -9 20 5 15
24 -10 19 9 -8 26 -24 16 -24 16 -24 -21 0 -20 6 -47 13 -58 12 -19 12 -24 -4
-38 -10 -9 -21 -13 -26 -9 -4 5 -5 3 -2 -3 11 -20 -19 -35 -80 -41 -106 -10
-146 -45 -140 -119 l3 -49 2 52 c2 62 22 83 22 23 0 -27 5 -43 15 -46 17 -7
21 -33 5 -35 -37 -5 -46 -1 -63 29 -14 23 -17 42 -13 67 9 44 51 95 79 95 12
0 28 9 35 21 10 16 10 19 1 13 -9 -5 -11 -1 -7 14 7 24 4 25 -29 16 -13 -4
-21 -10 -18 -14 3 -4 -3 -7 -11 -6 -9 0 -18 -7 -19 -16 -2 -10 0 -17 3 -17 22
3 21 -5 -6 -36 -17 -19 -34 -51 -38 -70 -3 -20 -8 -34 -11 -31 -3 2 -4 7 -3
11 1 4 -7 13 -17 22 -11 8 -12 12 -3 8 8 -4 4 3 -10 14 -16 14 -19 19 -7 15
20 -7 21 -1 5 26 -7 10 -9 22 -5 26 11 11 17 0 20 -33 2 -36 21 -34 23 3 1 14
10 34 20 45 9 10 12 19 7 19 -6 0 -18 -15 -27 -32 -10 -22 -16 -27 -16 -14 0
25 61 84 96 91 57 12 116 45 110 61 -3 8 -2 13 3 10 5 -3 9 15 9 39 1 25 6 54
12 64 8 16 6 22 -7 30 -14 8 -15 10 -3 11 13 0 13 2 0 11 -12 9 -12 10 4 5 20
-7 56 18 56 38 0 6 -4 4 -10 -4 -5 -8 -11 -12 -13 -10 -8 8 57 100 70 100 7 0
13 4 13 8 0 11 59 34 110 41 49 7 80 2 126 -22z m669 23 c3 -5 1 -10 -4 -10
-6 0 -11 5 -11 10 0 6 2 10 4 10 3 0 8 -4 11 -10z m-963 -51 c18 -1 19 -2 5
-6 -22 -6 -47 14 -46 36 0 11 3 9 9 -6 6 -14 19 -23 32 -24z m-81 -42 c-10 -9
-11 -8 -5 6 3 10 9 15 12 12 3 -3 0 -11 -7 -18z m1106 -64 c-3 -10 -5 -4 -5
12 0 17 2 24 5 18 2 -7 2 -21 0 -30z m-1322 -60 c0 -43 4 -91 9 -108 6 -23 6
-27 -3 -19 -20 19 -28 204 -8 204 1 0 2 -35 2 -77z m-382 -8 c-3 -9 -8 -14
-10 -11 -3 3 -2 9 2 15 9 16 15 13 8 -4z m1505 -39 c3 -15 1 -16 -17 -6 -12 6
-19 16 -15 21 9 15 28 5 32 -15z m-1493 -62 c0 -16 4 -36 9 -44 5 -8 -5 -2
-22 14 -35 33 -38 37 -19 34 6 -2 11 5 11 15 -1 10 3 16 10 14 6 -2 11 -17 11
-33z m305 -93 c-1 -13 -29 45 -29 59 0 8 6 0 14 -19 8 -18 15 -36 15 -40z
m270 59 c-8 -5 -19 -10 -25 -10 -5 0 -3 5 5 10 8 5 20 10 25 10 6 0 3 -5 -5
-10z m150 -41 c0 -5 -4 -9 -10 -9 -5 0 -10 7 -10 16 0 8 5 12 10 9 6 -3 10
-10 10 -16z m551 -26 c13 -14 18 -23 12 -19 -15 8 -18 -10 -3 -19 12 -7 14
-35 3 -35 -5 0 -15 15 -23 32 -8 18 -21 34 -29 36 -9 3 -6 -6 7 -24 33 -46 45
-107 29 -146 l-14 -33 5 51 c3 39 -1 60 -18 93 -12 24 -24 41 -26 38 -3 -3 2
-17 11 -31 9 -14 14 -30 10 -36 -3 -5 -1 -10 4 -10 16 0 12 -71 -5 -100 -11
-18 -13 -19 -9 -5 15 48 17 78 5 100 -20 38 -30 20 -29 -53 1 -43 -5 -80 -15
-102 -9 -19 -13 -26 -9 -15 4 11 8 55 9 98 1 43 6 83 13 90 13 13 15 44 2 52
-6 3 -14 -1 -18 -9 -7 -13 -14 -9 -35 18 l-27 34 34 -1 c19 -1 30 -4 24 -8 -7
-4 -4 -9 7 -13 17 -7 37 11 28 25 -2 4 6 5 18 1 14 -3 19 -2 14 6 -12 20 -1
13 25 -15z m-488 -40 c-7 -2 -14 -21 -14 -41 -1 -20 -5 -50 -10 -67 -7 -26 -8
-25 -4 10 3 22 5 55 5 73 0 24 4 32 18 31 10 0 12 -3 5 -6z m-446 -34 c2 -16
-1 -19 -9 -11 -5 5 -7 15 -4 21 10 15 12 14 13 -10z m278 -19 c-3 -6 -10 -8
-15 -5 -10 6 -44 -24 -57 -52 -13 -25 -10 -76 3 -80 7 -2 10 6 7 22 -3 14 -1
25 4 25 5 0 8 -16 8 -35 -1 -20 6 -53 16 -75 20 -45 14 -50 -25 -19 -14 11
-26 17 -26 12 -1 -4 -9 2 -19 14 -10 12 -22 19 -27 15 -5 -4 -2 2 6 12 15 19
15 19 18 0 2 -10 8 -23 13 -28 5 -5 4 6 -1 25 -14 48 -12 94 5 137 12 29 12
33 1 19 -11 -14 -15 -15 -20 -5 -3 7 -4 4 -1 -7 2 -11 0 -36 -5 -55 l-10 -35
4 43 c2 23 0 40 -4 37 -5 -3 -12 0 -16 6 -4 7 -3 9 3 6 6 -4 14 0 17 9 3 8 10
13 15 9 5 -3 12 -2 15 3 3 4 26 9 51 11 31 1 45 -2 40 -9z m229 -5 c-4 -8 -10
-12 -15 -9 -11 6 -2 24 11 24 5 0 7 -7 4 -15z m203 -5 c11 -16 10 -18 -1 -14
-15 6 -30 34 -18 34 4 0 13 -9 19 -20z m245 -62 c-6 -6 -7 0 -4 19 5 21 7 23
10 9 2 -10 0 -22 -6 -28z m-706 1 c1 -25 -1 -28 -8 -15 -5 10 -7 24 -4 32 8
21 11 17 12 -17z m-26 6 c0 -8 -4 -15 -10 -15 -5 0 -7 7 -4 15 4 8 8 15 10 15
2 0 4 -7 4 -15z m475 -51 c-3 -32 -11 -39 -19 -19 -3 9 -2 13 4 10 6 -3 10 -1
10 5 0 7 -6 10 -12 7 -7 -2 -12 -13 -10 -23 2 -18 2 -18 -13 0 -19 25 -19 31
1 51 21 21 43 4 39 -31z m-64 9 c-12 -20 -14 -14 -5 12 4 9 9 14 11 11 3 -2 0
-13 -6 -23z m350 4 c-10 -9 -11 -8 -5 6 3 10 9 15 12 12 3 -3 0 -11 -7 -18z
m23 -28 c-16 -17 -38 -36 -49 -41 -11 -6 1 9 25 34 50 50 71 56 24 7z m-1239
21 c10 -16 -16 -43 -28 -31 -11 11 -2 41 12 41 5 0 13 -5 16 -10z m507 -15
c14 3 17 -2 12 -21 -4 -17 0 -31 11 -44 26 -29 3 -24 -25 5 -20 21 -21 27 -9
42 8 9 9 14 3 10 -7 -4 -18 1 -25 11 -12 15 -12 16 1 6 8 -6 23 -10 32 -9z
m118 -24 c-5 -11 -15 -23 -21 -27 -6 -3 -3 5 6 20 20 30 30 35 15 7z m-60 -11
c0 -5 -7 -7 -15 -4 -8 4 -15 8 -15 10 0 2 7 4 15 4 8 0 15 -4 15 -10z m348
-20 c-7 -11 -17 -20 -22 -20 -4 0 -3 6 3 13 6 8 8 17 4 20 -3 4 1 7 10 7 15 0
15 -3 5 -20z m-861 -19 c15 -20 19 -31 11 -39 -13 -13 -63 42 -53 58 10 16 20
12 42 -19z m913 -16 c-26 -28 -17 -34 12 -8 18 16 18 16 12 -3 -12 -34 -23
-41 -61 -41 -28 -1 -32 1 -15 6 13 3 22 9 20 13 -3 7 41 58 50 58 3 0 -5 -11
-18 -25z m-310 -15 c8 -5 11 -10 5 -10 -5 0 -17 5 -25 10 -8 5 -10 10 -5 10 6
0 17 -5 25 -10z m136 -22 c-14 -9 -62 -9 -96 1 -16 5 -1 7 41 7 37 -1 62 -4
55 -8z m28 -13 c-7 -16 -24 -21 -24 -6 0 8 7 13 27 20 1 1 0 -6 -3 -14z m56 3
c0 -6 -3 -8 -7 -5 -3 4 -13 1 -22 -6 -14 -11 -14 -10 -2 6 15 20 31 22 31 5z
m-170 -9 c0 -5 5 -7 12 -3 6 4 8 3 5 -4 -9 -13 -40 -9 -45 6 -2 7 3 12 12 12
9 0 16 -5 16 -11z"/>
<path d="M1420 1419 c0 -5 5 -7 10 -4 6 3 10 8 10 11 0 2 -4 4 -10 4 -5 0 -10
-5 -10 -11z"/>
<path d="M490 1391 c-15 -30 -12 -33 10 -11 22 22 25 30 10 30 -5 0 -14 -9
-20 -19z"/>
<path d="M1072 981 c-7 -4 10 -6 40 -3 39 3 68 -2 107 -17 29 -12 55 -20 58
-18 2 2 -22 14 -53 26 -57 21 -128 27 -152 12z"/>
<path d="M999 933 l-24 -28 28 24 c25 23 32 31 24 31 -2 0 -14 -12 -28 -27z"/>
<path d="M1300 911 c0 -5 5 -13 10 -16 6 -3 10 -2 10 4 0 5 -4 13 -10 16 -5 3
-10 2 -10 -4z"/>
<path d="M1170 802 c0 -6 -12 -25 -27 -44 -22 -27 -23 -29 -4 -13 27 23 45 54
37 63 -3 3 -6 0 -6 -6z"/>
<path d="M1193 795 c-4 -11 -2 -20 5 -23 7 -2 12 -8 12 -14 0 -6 -6 -8 -14 -5
-8 3 -19 0 -25 -7 -9 -11 -5 -12 21 -6 21 4 32 12 29 21 -2 8 -4 19 -5 26 -4
22 -15 26 -23 8z"/>
<path d="M930 761 c0 -11 4 -22 9 -25 4 -3 6 6 3 19 -5 30 -12 33 -12 6z"/>
<path d="M1041 744 c0 -11 3 -14 6 -6 3 7 2 16 -1 19 -3 4 -6 -2 -5 -13z"/>
<path d="M1080 720 c-20 -13 -22 -50 -2 -50 13 0 13 3 4 12 -16 16 -15 28 2
28 8 0 18 5 21 10 8 13 -5 13 -25 0z"/>
<path d="M973 688 c-8 -14 -17 -66 -10 -58 3 3 7 14 9 25 1 11 9 23 17 26 10
4 11 8 4 12 -7 4 -15 2 -20 -5z"/>
<path d="M926 661 c-5 -7 -22 -19 -40 -27 -17 -7 -25 -13 -18 -14 7 0 22 5 33
10 29 16 23 -5 -8 -30 -22 -16 -23 -19 -5 -10 26 13 56 54 50 72 -3 9 -6 9
-12 -1z"/>
<path d="M775 370 c-3 -6 1 -7 9 -4 18 7 21 14 7 14 -6 0 -13 -4 -16 -10z"/>
<path d="M724 1644 c4 -15 2 -32 -5 -40 -19 -23 -5 -33 19 -14 22 18 22 20 7
50 -19 37 -29 39 -21 4z"/>
<path d="M1930 1502 c0 -6 5 -14 10 -17 6 -3 10 -14 10 -24 0 -10 14 -35 30
-56 33 -41 38 -60 15 -51 -27 10 -15 -9 23 -36 36 -25 41 -26 75 -14 46 16 79
45 72 65 -4 9 12 30 42 58 61 56 11 31 -118 -57 -25 -18 -26 -18 -40 2 -56 82
-119 151 -119 130z"/>
<path d="M2185 1389 c-4 -6 -5 -12 -2 -15 2 -3 7 2 10 11 7 17 1 20 -8 4z"/>
<path d="M1891 633 c-7 -32 -33 -100 -59 -151 -38 -78 -60 -109 -133 -180 -70
-70 -106 -97 -183 -136 -53 -28 -96 -53 -96 -58 0 -4 22 -8 50 -8 27 0 64 -7
83 -16 32 -15 36 -15 85 10 28 14 63 26 78 26 17 0 46 17 84 50 31 27 60 46
64 42 4 -3 -8 -19 -26 -34 -30 -25 -31 -27 -11 -28 12 0 34 11 49 23 l27 24
53 -29 c30 -15 58 -28 64 -28 18 0 11 33 -12 58 -18 18 7 9 101 -37 68 -34
125 -61 127 -59 2 2 -42 48 -97 102 -103 100 -126 134 -110 164 5 10 8 59 8
109 -2 88 -4 94 -33 125 -16 18 -36 45 -44 61 -8 17 -21 27 -35 27 -18 0 -24
-9 -34 -57z m120 -250 c-9 -15 -10 -13 -11 14 0 17 3 40 8 50 5 14 8 11 10
-14 2 -18 -1 -41 -7 -50z"/>
<path d="M1051 204 c0 -11 3 -14 6 -6 3 7 2 16 -1 19 -3 4 -6 -2 -5 -13z"/>
<path d="M1087 162 l-18 -37 20 25 c12 14 21 31 21 38 0 19 -4 15 -23 -26z"/>
<path d="M1172 160 c0 -19 2 -27 5 -17 2 9 2 25 0 35 -3 9 -5 1 -5 -18z"/>
<path d="M1028 138 c5 -5 16 -8 23 -6 8 3 3 7 -10 11 -17 4 -21 3 -13 -5z"/>
<path d="M1198 123 c7 -3 16 -2 19 1 4 3 -2 6 -13 5 -11 0 -14 -3 -6 -6z"/>
</g>
</svg>
